# xmcd
#
# Track frame offsets: 
#        150
#        23423
#        43424
#        67810
#        76218
#        109712
#        118996
#        135219
#        148255
#        178626
#        197138
#        227648
#        231816
#
# Disc length: 3342 seconds
#
# Revision: 2
# Processed by: cddbd v1.4PL0 Copyright (c) Steve Scherf et al.
# Submitted via: ExactAudioCopy v0.90b4
#
DISCID=ab0d0c0d
DTITLE=Ian Siegal - I Shall Be Standing In The Morning
DYEAR=2001
DGENRE=Blues
TTITLE0=Monday Saw...
TTITLE1=How Come You're Still Here? 
TTITLE2=Scarecrow
TTITLE3=Beulah Land #1 (Gospel)
TTITLE4=I Don't Want To Be An Angel
TTITLE5=She Makes Me Hairy
TTITLE6=Life Too Short
TTITLE7=Beulah Land #2 (Temptation)
TTITLE8=Early Grace
TTITLE9=This Heart
TTITLE10=Queen Of The Junior Prom
TTITLE11=Beulah Land #3 (Salvation)
TTITLE12=Standing In The Morning
EXTD=
EXTT0=
EXTT1=
EXTT2=
EXTT3=
EXTT4=
EXTT5=
EXTT6=
EXTT7=
EXTT8=
EXTT9=
EXTT10=
EXTT11=
EXTT12=
PLAYORDER=
